<svg id="visual" viewBox="0 0 3840 2160" width="3840" height="2160" xmlns="http://www.w3.org/2000/svg" xmlns:xlink="http://www.w3.org/1999/xlink" version="1.1"><rect x="0" y="0" width="3840" height="2160" fill="#352400"></rect><defs><linearGradient id="grad1_0" x1="43.8%" y1="0%" x2="100%" y2="100%"><stop offset="14.444444444444446%" stop-color="#ffbe23" stop-opacity="1"></stop><stop offset="85.55555555555554%" stop-color="#ffbe23" stop-opacity="1"></stop></linearGradient></defs><defs><linearGradient id="grad1_1" x1="43.8%" y1="0%" x2="100%" y2="100%"><stop offset="14.444444444444446%" stop-color="#ffbe23" stop-opacity="1"></stop><stop offset="85.55555555555554%" stop-color="#b68619" stop-opacity="1"></stop></linearGradient></defs><defs><linearGradient id="grad1_2" x1="43.8%" y1="0%" x2="100%" y2="100%"><stop offset="14.444444444444446%" stop-color="#72520f" stop-opacity="1"></stop><stop offset="85.55555555555554%" stop-color="#b68619" stop-opacity="1"></stop></linearGradient></defs><defs><linearGradient id="grad1_3" x1="43.8%" y1="0%" x2="100%" y2="100%"><stop offset="14.444444444444446%" stop-color="#72520f" stop-opacity="1"></stop><stop offset="85.55555555555554%" stop-color="#352400" stop-opacity="1"></stop></linearGradient></defs><defs><linearGradient id="grad2_0" x1="0%" y1="0%" x2="56.3%" y2="100%"><stop offset="14.444444444444446%" stop-color="#ffbe23" stop-opacity="1"></stop><stop offset="85.55555555555554%" stop-color="#ffbe23" stop-opacity="1"></stop></linearGradient></defs><defs><linearGradient id="grad2_1" x1="0%" y1="0%" x2="56.3%" y2="100%"><stop offset="14.444444444444446%" stop-color="#b68619" stop-opacity="1"></stop><stop offset="85.55555555555554%" stop-color="#ffbe23" stop-opacity="1"></stop></linearGradient></defs><defs><linearGradient id="grad2_2" x1="0%" y1="0%" x2="56.3%" y2="100%"><stop offset="14.444444444444446%" stop-color="#b68619" stop-opacity="1"></stop><stop offset="85.55555555555554%" stop-color="#72520f" stop-opacity="1"></stop></linearGradient></defs><defs><linearGradient id="grad2_3" x1="0%" y1="0%" x2="56.3%" y2="100%"><stop offset="14.444444444444446%" stop-color="#352400" stop-opacity="1"></stop><stop offset="85.55555555555554%" stop-color="#72520f" stop-opacity="1"></stop></linearGradient></defs><g transform="translate(3840, 0)"><path d="M0 1728C-93.6 1690.1 -187.3 1652.1 -245.8 1551.7C-304.3 1451.2 -327.6 1288.3 -419.6 1291.5C-511.7 1294.8 -672.4 1464.3 -736.8 1446.1C-801.3 1427.9 -769.4 1222.2 -846.4 1165C-923.4 1107.8 -1109.2 1199.2 -1141.3 1141.3C-1173.3 1083.4 -1051.6 876.2 -1112.4 808.2C-1173.2 740.2 -1416.5 811.5 -1539.7 784.5C-1662.8 757.5 -1665.8 632.1 -1598.7 519.5C-1531.7 406.8 -1394.6 306.9 -1404.5 222.4C-1414.4 138 -1571.2 69 -1728 0L0 0Z" fill="#523a0a"></path><path d="M0 1296C-70.2 1267.5 -140.4 1239.1 -184.3 1163.7C-228.2 1088.4 -245.7 966.2 -314.7 968.7C-383.8 971.1 -504.3 1098.2 -552.6 1084.6C-600.9 1071 -577.1 916.6 -634.8 873.7C-692.6 830.8 -831.9 899.4 -856 856C-880 812.5 -788.7 657.1 -834.3 606.2C-879.9 555.2 -1062.4 608.7 -1154.7 588.4C-1247.1 568.1 -1249.3 474.1 -1199 389.6C-1148.8 305.1 -1046 230.2 -1053.4 166.8C-1060.8 103.5 -1178.4 51.7 -1296 0L0 0Z" fill="#946c14"></path><path d="M0 864C-46.8 845 -93.6 826.1 -122.9 775.8C-152.1 725.6 -163.8 644.1 -209.8 645.8C-255.8 647.4 -336.2 732.1 -368.4 723.1C-400.6 714 -384.7 611.1 -423.2 582.5C-461.7 553.9 -554.6 599.6 -570.6 570.6C-586.7 541.7 -525.8 438.1 -556.2 404.1C-586.6 370.1 -708.3 405.8 -769.8 392.2C-831.4 378.7 -832.9 316 -799.4 259.7C-765.8 203.4 -697.3 153.5 -702.2 111.2C-707.2 69 -785.6 34.5 -864 0L0 0Z" fill="#daa21e"></path><path d="M0 432C-23.4 422.5 -46.8 413 -61.4 387.9C-76.1 362.8 -81.9 322.1 -104.9 322.9C-127.9 323.7 -168.1 366.1 -184.2 361.5C-200.3 357 -192.4 305.5 -211.6 291.2C-230.9 276.9 -277.3 299.8 -285.3 285.3C-293.3 270.8 -262.9 219 -278.1 202.1C-293.3 185.1 -354.1 202.9 -384.9 196.1C-415.7 189.4 -416.4 158 -399.7 129.9C-382.9 101.7 -348.7 76.7 -351.1 55.6C-353.6 34.5 -392.8 17.2 -432 0L0 0Z" fill="#ffbe23"></path></g><g transform="translate(0, 2160)"><path d="M0 -1728C71.9 -1564.9 143.8 -1401.9 210.2 -1327.5C276.7 -1253 337.7 -1267.2 427.7 -1316.3C517.7 -1365.3 636.8 -1449.1 757.7 -1487.1C878.6 -1525.1 1001.4 -1517.2 1013.9 -1395.6C1026.5 -1273.9 928.7 -1038.5 928.4 -928.4C928.1 -818.3 1025.2 -833.5 1143.1 -830.5C1261.1 -827.6 1399.8 -806.4 1467.5 -747.7C1535.2 -689.1 1531.8 -592.9 1566.4 -509C1601 -425 1673.5 -353.1 1706.7 -270.3C1740 -187.5 1734 -93.8 1728 0L0 0Z" fill="#523a0a"></path><path d="M0 -1296C53.9 -1173.7 107.9 -1051.4 157.7 -995.6C207.5 -939.8 253.2 -950.4 320.8 -987.2C388.3 -1024 477.6 -1086.8 568.3 -1115.3C659 -1143.8 751.1 -1137.9 760.4 -1046.7C769.8 -955.4 696.6 -778.9 696.3 -696.3C696.1 -613.8 768.9 -625.1 857.4 -622.9C945.8 -620.7 1049.8 -604.8 1100.6 -560.8C1151.4 -516.8 1148.9 -444.7 1174.8 -381.7C1200.7 -318.7 1255.1 -264.8 1280 -202.7C1305 -140.6 1300.5 -70.3 1296 0L0 0Z" fill="#946c14"></path><path d="M0 -864C36 -782.5 71.9 -700.9 105.1 -663.7C138.3 -626.5 168.8 -633.6 213.8 -658.1C258.9 -682.6 318.4 -724.6 378.9 -743.5C439.3 -762.5 500.7 -758.6 507 -697.8C513.2 -637 464.4 -519.3 464.2 -464.2C464.1 -409.2 512.6 -416.8 571.6 -415.3C630.5 -413.8 699.9 -403.2 733.7 -373.9C767.6 -344.5 765.9 -296.5 783.2 -254.5C800.5 -212.5 836.7 -176.6 853.4 -135.2C870 -93.8 867 -46.9 864 0L0 0Z" fill="#daa21e"></path><path d="M0 -432C18 -391.2 36 -350.5 52.6 -331.9C69.2 -313.3 84.4 -316.8 106.9 -329.1C129.4 -341.3 159.2 -362.3 189.4 -371.8C219.7 -381.3 250.4 -379.3 253.5 -348.9C256.6 -318.5 232.2 -259.6 232.1 -232.1C232 -204.6 256.3 -208.4 285.8 -207.6C315.3 -206.9 349.9 -201.6 366.9 -186.9C383.8 -172.3 383 -148.2 391.6 -127.2C400.2 -106.2 418.4 -88.3 426.7 -67.6C435 -46.9 433.5 -23.4 432 0L0 0Z" fill="#ffbe23"></path></g></svg>